<svg
    xmlns="http://www.w3.org/2000/svg"
    width="544.848"
    height="987.077"
    data-name="Layer 1"
    viewBox="0 0 744.848 747.077"
>
    <path
        fill="#f2f2f2"
        d="M299.205 705.809l-6.56-25.872a335.967 335.967 0 00-35.643-12.788l-.828 12.024-3.358-13.247c-15.021-4.294-25.24-6.183-25.24-6.183s13.8 52.489 42.754 92.617l33.734 5.926-26.207 3.779a135.926 135.926 0 0011.719 12.422c42.115 39.092 89.024 57.028 104.773 40.06s-5.625-62.412-47.74-101.5c-13.056-12.12-29.457-21.844-45.875-29.5z"
        data-name="Path 1"
        transform="translate(-227.576 -76.461)"
    ></path>
    <path
        fill="#f2f2f2"
        d="M361.591 677.706l7.758-25.538a335.94 335.94 0 00-23.9-29.37l-6.924 9.864 3.972-13.076c-10.641-11.436-18.412-18.335-18.412-18.335s-15.315 52.067-11.275 101.384l25.815 22.51-24.392-10.312a135.919 135.919 0 003.614 16.694c15.846 55.234 46.731 94.835 68.983 88.451s27.446-56.335 11.6-111.569c-4.912-17.123-13.926-33.926-24.023-48.965z"
        data-name="Path 2"
        transform="translate(-227.576 -76.461)"
    ></path>
    <path
        fill="#e6e6e6"
        d="M747.327 253.445h-4.092v-112.1a64.883 64.883 0 00-64.883-64.883H440.845a64.883 64.883 0 00-64.883 64.883v615a64.883 64.883 0 0064.883 64.883h237.507a64.883 64.883 0 0064.882-64.883V333.239h4.092z"
        data-name="Path 22"
        transform="translate(-227.576 -76.461)"
    ></path>
    <path
        fill="#fff"
        d="M680.97 93.335h-31a23.02 23.02 0 01-21.316 31.715H492.589a23.02 23.02 0 01-21.314-31.715h-28.956a48.454 48.454 0 00-48.454 48.455v614.106a48.454 48.454 0 0048.454 48.454H680.97a48.454 48.454 0 0048.454-48.454V141.79a48.454 48.454 0 00-48.454-48.453z"
        data-name="Path 23"
        transform="translate(-227.576 -76.461)"
    ></path>
    <path
        fill="#ccc"
        d="M531.234 337.965a24.437 24.437 0 0112.23-21.174 24.45 24.45 0 100 42.345 24.434 24.434 0 01-12.23-21.171z"
        data-name="Path 6"
        transform="translate(-227.576 -76.461)"
    ></path>
    <path
        fill="#ccc"
        d="M561.971 337.965a24.436 24.436 0 0112.23-21.174 24.45 24.45 0 100 42.345 24.434 24.434 0 01-12.23-21.171z"
        data-name="Path 7"
        transform="translate(-227.576 -76.461)"
    ></path>
    <circle
        cx="364.434"
        cy="261.502"
        r="24.45"
        fill="#6c63ff"
        data-name="Ellipse 1"
    ></circle>
    <path
        fill="#ccc"
        d="M632.872 414.33h-142.5a5.123 5.123 0 01-5.117-5.117v-142.5a5.123 5.123 0 015.117-5.117h142.5a5.123 5.123 0 015.117 5.117v142.5a5.123 5.123 0 01-5.117 5.117zm-142.5-150.686a3.073 3.073 0 00-3.07 3.07v142.5a3.073 3.073 0 003.07 3.07h142.5a3.073 3.073 0 003.07-3.07v-142.5a3.073 3.073 0 00-3.07-3.07z"
        data-name="Path 8"
        transform="translate(-227.576 -76.461)"
    ></path>
    <path
        fill="#ccc"
        d="M218.562 447.102H437.11400000000003V449.149H218.562z"
        data-name="Rectangle 1"
    ></path>
    <circle
        cx="225.464"
        cy="427.42"
        r="6.902"
        fill="#6c63ff"
        data-name="Ellipse 2"
    ></circle>
    <path
        fill="#ccc"
        d="M218.562 516.118H437.11400000000003V518.1650000000001H218.562z"
        data-name="Rectangle 2"
    ></path>
    <circle
        cx="225.464"
        cy="496.437"
        r="6.902"
        fill="#6c63ff"
        data-name="Ellipse 3"
    ></circle>
    <path
        fill="#6c63ff"
        d="M433.114 594.71h-69.068a4.505 4.505 0 01-4.5-4.5v-24.208a4.505 4.505 0 014.5-4.5h69.068a4.505 4.505 0 014.5 4.5v24.208a4.505 4.505 0 01-4.5 4.5z"
    ></path>
    <circle
        cx="247.978"
        cy="427.42"
        r="6.902"
        fill="#6c63ff"
        data-name="Ellipse 7"
    ></circle>
    <circle
        cx="270.492"
        cy="427.42"
        r="6.902"
        fill="#6c63ff"
        data-name="Ellipse 8"
    ></circle>
    <circle
        cx="247.978"
        cy="496.437"
        r="6.902"
        fill="#6c63ff"
        data-name="Ellipse 9"
    ></circle>
    <circle
        cx="270.492"
        cy="496.437"
        r="6.902"
        fill="#6c63ff"
        data-name="Ellipse 10"
    ></circle>
    <path
        fill="#3f3d56"
        d="M969.642 823.539H251.656c-1.537 0-2.782-.546-2.782-1.218s1.245-1.22 2.782-1.22h717.986c1.536 0 2.782.547 2.782 1.22s-1.246 1.218-2.782 1.218z"
        data-name="Path 88"
        transform="translate(-227.576 -76.461)"
    ></path>
    <path
        fill="#ffb8b8"
        d="M564.677 489.461a10.094 10.094 0 011.41.788l44.853-19.143 1.6-11.816 17.922-.11-1.059 27.099-59.2 15.656a10.608 10.608 0 01-.447 1.208 10.235 10.235 0 11-5.08-13.682z"
    ></path>
    <path
        fill="#ffb8b8"
        d="M636.98 735.021L624.72 735.021 618.888 687.733 636.982 687.734 636.98 735.021z"
    ></path>
    <path
        fill="#2f2e41"
        d="M615.963 731.518h23.644v14.887h-38.531a14.887 14.887 0 0114.887-14.887z"
    ></path>
    <path
        fill="#ffb8b8"
        d="M684.66 731.557L672.459 732.759 662.018 686.271 680.025 684.497 684.66 731.557z"
    ></path>
    <path
        fill="#2f2e41"
        d="M663.401 730.131l23.53-2.318 1.46 14.816-38.346 3.776a14.887 14.887 0 0113.356-16.274z"
    ></path>
    <circle
        cx="640.393"
        cy="384.574"
        r="24.561"
        fill="#ffb8b8"
    ></circle>
    <path
        fill="#2f2e41"
        d="M621.98 725.458a4.47 4.47 0 01-4.415-3.697c-6.345-35.226-27.088-150.406-27.584-153.596a1.427 1.427 0 01-.015-.222v-8.588a1.489 1.489 0 01.279-.872l2.74-3.838a1.478 1.478 0 011.144-.625c15.622-.732 66.784-2.878 69.256.21 2.482 3.103 1.605 12.506 1.404 14.36l.01.193 22.985 146.995a4.512 4.512 0 01-3.715 5.135l-14.356 2.365a4.521 4.521 0 01-5.026-3.092c-4.44-14.189-19.329-61.918-24.489-80.387a.5.5 0 00-.98.138c.258 17.606.88 62.524 1.095 78.038l.024 1.67a4.518 4.518 0 01-4.093 4.537l-13.844 1.257c-.14.013-.281.019-.42.019z"
    ></path>
    <path
        fill="#6c63ff"
        d="M852.38 495.254c-4.285 2.548-6.85 7.23-8.322 11.995a113.681 113.681 0 00-4.884 27.16l-1.556 27.6-19.255 73.17c16.689 14.12 26.315 10.911 48.78-.64s25.033 3.852 25.033 3.852l4.492-62.259 6.419-68.032a30.164 30.164 0 00-4.862-4.674 49.658 49.658 0 00-42.442-8.995z"
        data-name="Path 99"
        transform="translate(-227.576 -76.461)"
    ></path>
    <path
        fill="#ffb8b8"
        d="M618.55 504.239a10.526 10.526 0 011.501.704l44.349-22.197.736-12.026 18.293-1.261.98 27.412-59.265 19.6a10.496 10.496 0 11-6.593-12.232z"
    ></path>
    <path
        fill="#6c63ff"
        d="M902.766 508.412c10.911 3.85 12.833 45.573 12.833 45.573-12.837-7.06-28.241 4.493-28.241 4.493s-3.21-10.911-7.06-25.032a24.53 24.53 0 015.134-23.106s6.422-5.782 17.334-1.928z"
        data-name="Path 101"
        transform="translate(-227.576 -76.461)"
    ></path>
    <path
        fill="#2f2e41"
        d="M889.991 467.53c-3.06-2.448-7.235 2.002-7.235 2.002l-2.448-22.033s-15.301 1.833-25.094-.612-11.322 8.875-11.322 8.875a78.58 78.58 0 01-.306-13.77c.611-5.509 8.568-11.017 22.645-14.69s21.42 12.241 21.42 12.241c9.794 4.896 5.4 30.436 2.34 27.988z"
        data-name="Path 102"
        transform="translate(-227.576 -76.461)"
    ></path>
</svg>
